<svg xmlns="http://www.w3.org/2000/svg" width="40" height="40" viewBox="0 0 40 40"><g transform="translate(0 -45)"><g transform="translate(1.25 49.77)"><path d="M23.666,5.582h3.056V0H21.169c-.463-.019-6.11-.127-7.574,5.454a14.589,14.589,0,0,0-.489,4.487L8.028,9.96v5.851l5.084-.015V31.23h7.766V15.81h5.14V9.943h-5.14V8.1C20.878,6.949,21.362,5.582,23.666,5.582Zm1.067,5.645v3.3h-5.14V29.945H14.4V14.508l-5.084.015V11.241l5.1-.015-.013-.653A15.106,15.106,0,0,1,14.82,5.84a6.121,6.121,0,0,1,6.294-4.553h4.324V4.3H23.666c-3,0-4.072,1.962-4.072,3.8v3.131Z" transform="translate(0 0)" fill="#ec678a"/></g><g transform="translate(0 45)" fill="none" stroke="#ec678a" stroke-width="3"><rect width="40" height="40" stroke="none"/><rect x="1.5" y="1.5" width="37" height="37" fill="none"/></g></g></svg>