<svg xmlns="http://www.w3.org/2000/svg" width="40" height="40" viewBox="0 0 40 40"><g transform="translate(-120 -45)"><g transform="translate(123.82 49.988)"><path d="M27.477,7.473a9.685,9.685,0,0,0-2.234-3.954A10.736,10.736,0,0,0,21.636.97,11.875,11.875,0,0,0,16.418.012c-.645.029-1.276.063-1.893.153A12.772,12.772,0,0,0,9.839,1.751,11,11,0,0,0,5.657,5.979,14.852,14.852,0,0,0,4.443,9.565a9.7,9.7,0,0,0,.472,4.617,6.233,6.233,0,0,0,2.4,3.126,3,3,0,0,0,1.3.557c.944-.018,1.132-.921,1.222-1.355.017-.082.034-.163.053-.239s.04-.139.063-.214a1.9,1.9,0,0,0,.014-1.544,2.953,2.953,0,0,0-.365-.483,2.216,2.216,0,0,1-.181-.221,4.348,4.348,0,0,1-.675-2.473A7.28,7.28,0,0,1,9.64,7.791a7.008,7.008,0,0,1,5.194-3.66,9.079,9.079,0,0,1,4.006.241A5.444,5.444,0,0,1,21.432,6.1a5.5,5.5,0,0,1,1.156,3.164,12.183,12.183,0,0,1-.077,2.153,9.666,9.666,0,0,1-1.792,4.958,3.422,3.422,0,0,1-2.583,1.533,2.252,2.252,0,0,1-1.49-.4,1.774,1.774,0,0,1-.736-1.083A3.343,3.343,0,0,1,16.1,14.78l.026-.092c.139-.506.286-.969.429-1.425.225-.718.459-1.459.651-2.32a5.3,5.3,0,0,0,.089-2.4,2.7,2.7,0,0,0-1.272-1.773,3.117,3.117,0,0,0-2.481-.2,4.178,4.178,0,0,0-2.552,3.038,6.584,6.584,0,0,0-.175,2.4,7.477,7.477,0,0,0,.478,1.936l-.028.094c-.019.063-.037.124-.05.176-.287,1.2-.566,2.378-.844,3.556-.264,1.119-.529,2.236-.8,3.364l-.061.253a19.224,19.224,0,0,0-.628,3.757l-.03.593a17.555,17.555,0,0,0,.03,3.3.922.922,0,0,0,.548.828.647.647,0,0,0,.393.145c.38,0,.718-.386,1.006-.714a14.548,14.548,0,0,0,2.442-4.121,17.575,17.575,0,0,0,.725-2.377l.122-.473c.147-.565.292-1.138.435-1.7l.01-.038a5.151,5.151,0,0,0,.927.636,5.98,5.98,0,0,0,2.518.72,8,8,0,0,0,2.771-.339,8.168,8.168,0,0,0,2.165-.979A11.026,11.026,0,0,0,27.6,12.968a15.342,15.342,0,0,0,.247-2.716A9.813,9.813,0,0,0,27.477,7.473Zm-1.061,5.3a9.851,9.851,0,0,1-4.124,6.847,6.98,6.98,0,0,1-1.85.837,6.818,6.818,0,0,1-2.36.3,4.737,4.737,0,0,1-2.023-.575A3.08,3.08,0,0,1,14.782,19l-.734-1.268-.661,2.6c-.142.563-.286,1.133-.432,1.7l-.123.48a16.375,16.375,0,0,1-.672,2.215,13.577,13.577,0,0,1-2.148,3.689,20.718,20.718,0,0,1,.031-2.605l.031-.6a18.255,18.255,0,0,1,.6-3.533l.062-.254c.27-1.129.535-2.248.8-3.367.278-1.177.557-2.357.843-3.551.008-.034.02-.073.033-.114a1.1,1.1,0,0,0,.045-.744A6.5,6.5,0,0,1,12,11.888a5.394,5.394,0,0,1,.142-1.965,3.013,3.013,0,0,1,1.783-2.212,1.95,1.95,0,0,1,.632-.1,1.78,1.78,0,0,1,.857.2,1.529,1.529,0,0,1,.712,1.024,4.264,4.264,0,0,1-.093,1.852c-.182.811-.4,1.5-.625,2.223-.147.468-.3.943-.44,1.464l-.025.091a4.356,4.356,0,0,0-.2,2.241,2.947,2.947,0,0,0,1.2,1.78,3.513,3.513,0,0,0,2.227.622,4.6,4.6,0,0,0,3.484-1.99A10.827,10.827,0,0,0,23.7,11.552a13.488,13.488,0,0,0,.082-2.369,6.681,6.681,0,0,0-1.42-3.836,6.64,6.64,0,0,0-3.156-2.114,10.325,10.325,0,0,0-4.57-.282A8.169,8.169,0,0,0,8.586,7.223a8.453,8.453,0,0,0-1.03,4.114,5.513,5.513,0,0,0,.878,3.141,3.327,3.327,0,0,0,.275.344,2.017,2.017,0,0,1,.225.287,1.7,1.7,0,0,1-.118.6c-.028.092-.055.18-.077.262s-.047.2-.068.3a2.878,2.878,0,0,1-.1.382,3,3,0,0,1-.541-.3,5.1,5.1,0,0,1-2.01-2.623A8.691,8.691,0,0,1,5.618,9.8,13.612,13.612,0,0,1,6.707,6.559a9.812,9.812,0,0,1,3.735-3.772A11.591,11.591,0,0,1,14.7,1.35c.564-.082,1.163-.114,1.778-.142a10.636,10.636,0,0,1,4.68.858,9.546,9.546,0,0,1,3.213,2.27A8.51,8.51,0,0,1,26.33,7.814a8.6,8.6,0,0,1,.316,2.441A14.325,14.325,0,0,1,26.416,12.769Z" transform="translate(0 0)" fill="#ec678a"/></g><g transform="translate(120 45)" fill="none" stroke="#ec678a" stroke-width="3"><rect width="40" height="40" stroke="none"/><rect x="1.5" y="1.5" width="37" height="37" fill="none"/></g></g></svg>