<svg xmlns="http://www.w3.org/2000/svg" width="40" height="40" viewBox="0 0 40 40"><g transform="translate(-60 -45)"><g transform="translate(60 45)"><g transform="translate(5.817 4.682)"><path d="M22.579,5.306H5.6A5.619,5.619,0,0,0,0,10.928V20.39a5.619,5.619,0,0,0,5.6,5.622H22.579a5.619,5.619,0,0,0,5.6-5.622V10.928A5.619,5.619,0,0,0,22.579,5.306ZM27.033,20.39a4.468,4.468,0,0,1-4.454,4.471H5.6A4.468,4.468,0,0,1,1.15,20.39V10.928A4.468,4.468,0,0,1,5.6,6.456H22.579a4.468,4.468,0,0,1,4.454,4.471Z" fill="#ec678a"/><path d="M27.233,19.7,15.922,13.08a.816.816,0,0,0-1.229.7V27.033a.816.816,0,0,0,1.229.7l11.31-6.623a.817.817,0,0,0,0-1.41Zm-10.906,5.9v-10.4l8.878,5.2Z" transform="translate(-6.417 -4.586)" fill="#ec678a"/></g></g><g transform="translate(60 45)" fill="none" stroke="#ec678a" stroke-width="3"><rect width="40" height="40" stroke="none"/><rect x="1.5" y="1.5" width="37" height="37" fill="none"/></g></g></svg>